<svg width="55" height="11" viewBox="0 0 55 11" fill="none" xmlns="http://www.w3.org/2000/svg">
<path d="M3.25192 8.75199C3.42792 8.75199 3.59592 8.74799 3.75592 8.73999C3.91592 8.73199 4.04392 8.71999 4.13992 8.70399V7.34799C4.06792 7.33199 3.95992 7.31599 3.81592 7.29999C3.67192 7.28399 3.53992 7.27599 3.41992 7.27599C3.25192 7.27599 3.09192 7.28799 2.93992 7.31199C2.79592 7.32799 2.66792 7.36399 2.55592 7.41999C2.44392 7.47599 2.35592 7.55199 2.29192 7.64799C2.22792 7.74399 2.19592 7.86399 2.19592 8.00799C2.19592 8.28799 2.28792 8.48399 2.47192 8.59599C2.66392 8.69999 2.92392 8.75199 3.25192 8.75199ZM3.10792 3.51999C3.63592 3.51999 4.07592 3.57999 4.42792 3.69999C4.77992 3.81999 5.05992 3.99199 5.26792 4.21599C5.48392 4.43999 5.63592 4.71199 5.72392 5.03199C5.81192 5.35199 5.85592 5.70799 5.85592 6.09999V9.81999C5.59992 9.87599 5.24392 9.93999 4.78792 10.012C4.33192 10.092 3.77992 10.132 3.13192 10.132C2.72392 10.132 2.35192 10.096 2.01592 10.024C1.68792 9.95199 1.40392 9.83599 1.16392 9.67599C0.923922 9.50799 0.739922 9.29199 0.611922 9.02799C0.483922 8.76399 0.419922 8.43999 0.419922 8.05599C0.419922 7.68799 0.491922 7.37599 0.635922 7.11999C0.787922 6.86399 0.987922 6.65999 1.23592 6.50799C1.48392 6.35599 1.76792 6.24799 2.08792 6.18399C2.40792 6.11199 2.73992 6.07599 3.08392 6.07599C3.31592 6.07599 3.51992 6.08799 3.69592 6.11199C3.87992 6.12799 4.02792 6.15199 4.13992 6.18399V6.01599C4.13992 5.71199 4.04792 5.46799 3.86392 5.28399C3.67992 5.09999 3.35992 5.00799 2.90392 5.00799C2.59992 5.00799 2.29992 5.03199 2.00392 5.07999C1.70792 5.11999 1.45192 5.17999 1.23592 5.25999L1.00792 3.81999C1.11192 3.78799 1.23992 3.75599 1.39192 3.72399C1.55192 3.68399 1.72392 3.65199 1.90792 3.62799C2.09192 3.59599 2.28392 3.57199 2.48392 3.55599C2.69192 3.53199 2.89992 3.51999 3.10792 3.51999Z" fill="white"/>
<path d="M11.0607 6.65199C11.0607 6.07599 10.9847 5.66799 10.8327 5.42799C10.6887 5.18799 10.4367 5.06799 10.0767 5.06799C9.96473 5.06799 9.84873 5.07599 9.72873 5.09199C9.60873 5.09999 9.49273 5.11199 9.38073 5.12799V9.99999H7.59273V3.90399C7.74473 3.86399 7.92073 3.82399 8.12073 3.78399C8.32873 3.73599 8.54473 3.69599 8.76873 3.66399C9.00073 3.62399 9.23673 3.59599 9.47673 3.57999C9.71673 3.55599 9.95273 3.54399 10.1847 3.54399C10.6407 3.54399 11.0087 3.60399 11.2887 3.72399C11.5767 3.83599 11.8127 3.97199 11.9967 4.13199C12.2527 3.94799 12.5447 3.80399 12.8727 3.69999C13.2087 3.59599 13.5167 3.54399 13.7967 3.54399C14.3007 3.54399 14.7127 3.61599 15.0327 3.75999C15.3607 3.89599 15.6207 4.09199 15.8127 4.34799C16.0047 4.60399 16.1367 4.90799 16.2087 5.25999C16.2807 5.61199 16.3167 6.00399 16.3167 6.43599V9.99999H14.5287V6.65199C14.5287 6.07599 14.4527 5.66799 14.3007 5.42799C14.1567 5.18799 13.9047 5.06799 13.5447 5.06799C13.4487 5.06799 13.3127 5.09199 13.1367 5.13999C12.9687 5.18799 12.8287 5.24799 12.7167 5.31999C12.7727 5.50399 12.8087 5.69999 12.8247 5.90799C12.8407 6.10799 12.8487 6.32399 12.8487 6.55599V9.99999H11.0607V6.65199Z" fill="white"/>
<path d="M21.5284 6.65199C21.5284 6.07599 21.4524 5.66799 21.3004 5.42799C21.1564 5.18799 20.9044 5.06799 20.5444 5.06799C20.4324 5.06799 20.3164 5.07599 20.1964 5.09199C20.0764 5.09999 19.9604 5.11199 19.8484 5.12799V9.99999H18.0604V3.90399C18.2124 3.86399 18.3884 3.82399 18.5884 3.78399C18.7964 3.73599 19.0124 3.69599 19.2364 3.66399C19.4684 3.62399 19.7044 3.59599 19.9444 3.57999C20.1844 3.55599 20.4204 3.54399 20.6524 3.54399C21.1084 3.54399 21.4764 3.60399 21.7564 3.72399C22.0444 3.83599 22.2804 3.97199 22.4644 4.13199C22.7204 3.94799 23.0124 3.80399 23.3404 3.69999C23.6764 3.59599 23.9844 3.54399 24.2644 3.54399C24.7684 3.54399 25.1804 3.61599 25.5004 3.75999C25.8284 3.89599 26.0884 4.09199 26.2804 4.34799C26.4724 4.60399 26.6044 4.90799 26.6764 5.25999C26.7484 5.61199 26.7844 6.00399 26.7844 6.43599V9.99999H24.9964V6.65199C24.9964 6.07599 24.9204 5.66799 24.7684 5.42799C24.6244 5.18799 24.3724 5.06799 24.0124 5.06799C23.9164 5.06799 23.7804 5.09199 23.6044 5.13999C23.4364 5.18799 23.2964 5.24799 23.1844 5.31999C23.2404 5.50399 23.2764 5.69999 23.2924 5.90799C23.3084 6.10799 23.3164 6.32399 23.3164 6.55599V9.99999H21.5284V6.65199Z" fill="white"/>
<path d="M28.228 6.89199C28.228 6.33199 28.312 5.84399 28.48 5.42799C28.656 5.00399 28.884 4.65199 29.164 4.37199C29.444 4.09199 29.764 3.87999 30.124 3.73599C30.492 3.59199 30.868 3.51999 31.252 3.51999C32.148 3.51999 32.856 3.79599 33.376 4.34799C33.896 4.89199 34.156 5.69599 34.156 6.75999C34.156 6.86399 34.152 6.97999 34.144 7.10799C34.136 7.22799 34.128 7.33599 34.12 7.43199H30.064C30.104 7.79999 30.276 8.09199 30.58 8.30799C30.884 8.52399 31.292 8.63199 31.804 8.63199C32.132 8.63199 32.452 8.60399 32.764 8.54799C33.084 8.48399 33.344 8.40799 33.544 8.31999L33.784 9.77199C33.688 9.81999 33.56 9.86799 33.4 9.91599C33.24 9.96399 33.06 10.004 32.86 10.036C32.668 10.076 32.46 10.108 32.236 10.132C32.012 10.156 31.788 10.168 31.564 10.168C30.996 10.168 30.5 10.084 30.076 9.91599C29.66 9.74799 29.312 9.51999 29.032 9.23199C28.76 8.93599 28.556 8.58799 28.42 8.18799C28.292 7.78799 28.228 7.35599 28.228 6.89199ZM32.428 6.20799C32.42 6.05599 32.392 5.90799 32.344 5.76399C32.304 5.61999 32.236 5.49199 32.14 5.37999C32.052 5.26799 31.936 5.17599 31.792 5.10399C31.656 5.03199 31.484 4.99599 31.276 4.99599C31.076 4.99599 30.904 5.03199 30.76 5.10399C30.616 5.16799 30.496 5.25599 30.4 5.36799C30.304 5.47999 30.228 5.61199 30.172 5.76399C30.124 5.90799 30.088 6.05599 30.064 6.20799H32.428Z" fill="white"/>
<path d="M38.1759 10.12C37.6559 10.112 37.2319 10.056 36.9039 9.95199C36.5839 9.84799 36.3279 9.70399 36.1359 9.51999C35.9519 9.32799 35.8239 9.09999 35.7519 8.83599C35.6879 8.56399 35.6559 8.25999 35.6559 7.92399V0.975988L37.4439 0.687988V7.56399C37.4439 7.72399 37.4559 7.86799 37.4799 7.99599C37.5039 8.12399 37.5479 8.23199 37.6119 8.31999C37.6839 8.40799 37.7839 8.47999 37.9119 8.53599C38.0399 8.59199 38.2119 8.62799 38.4279 8.64399L38.1759 10.12Z" fill="white"/>
<path d="M41.3607 9.99999H39.5727V3.68799H41.3607V9.99999ZM41.5287 1.86399C41.5287 2.19199 41.4207 2.45199 41.2047 2.64399C40.9967 2.82799 40.7487 2.91999 40.4607 2.91999C40.1727 2.91999 39.9207 2.82799 39.7047 2.64399C39.4967 2.45199 39.3927 2.19199 39.3927 1.86399C39.3927 1.53599 39.4967 1.27999 39.7047 1.09599C39.9207 0.903988 40.1727 0.807988 40.4607 0.807988C40.7487 0.807988 40.9967 0.903988 41.2047 1.09599C41.4207 1.27999 41.5287 1.53599 41.5287 1.86399Z" fill="white"/>
<path d="M45.5735 8.75199C45.7495 8.75199 45.9175 8.74799 46.0775 8.73999C46.2375 8.73199 46.3655 8.71999 46.4615 8.70399V7.34799C46.3895 7.33199 46.2815 7.31599 46.1375 7.29999C45.9935 7.28399 45.8615 7.27599 45.7415 7.27599C45.5735 7.27599 45.4135 7.28799 45.2615 7.31199C45.1175 7.32799 44.9895 7.36399 44.8775 7.41999C44.7655 7.47599 44.6775 7.55199 44.6135 7.64799C44.5495 7.74399 44.5175 7.86399 44.5175 8.00799C44.5175 8.28799 44.6095 8.48399 44.7935 8.59599C44.9855 8.69999 45.2455 8.75199 45.5735 8.75199ZM45.4295 3.51999C45.9575 3.51999 46.3975 3.57999 46.7495 3.69999C47.1015 3.81999 47.3815 3.99199 47.5895 4.21599C47.8055 4.43999 47.9575 4.71199 48.0455 5.03199C48.1335 5.35199 48.1775 5.70799 48.1775 6.09999V9.81999C47.9215 9.87599 47.5655 9.93999 47.1095 10.012C46.6535 10.092 46.1015 10.132 45.4535 10.132C45.0455 10.132 44.6735 10.096 44.3375 10.024C44.0095 9.95199 43.7255 9.83599 43.4855 9.67599C43.2455 9.50799 43.0615 9.29199 42.9335 9.02799C42.8055 8.76399 42.7415 8.43999 42.7415 8.05599C42.7415 7.68799 42.8135 7.37599 42.9575 7.11999C43.1095 6.86399 43.3095 6.65999 43.5575 6.50799C43.8055 6.35599 44.0895 6.24799 44.4095 6.18399C44.7295 6.11199 45.0615 6.07599 45.4055 6.07599C45.6375 6.07599 45.8415 6.08799 46.0175 6.11199C46.2015 6.12799 46.3495 6.15199 46.4615 6.18399V6.01599C46.4615 5.71199 46.3695 5.46799 46.1855 5.28399C46.0015 5.09999 45.6815 5.00799 45.2255 5.00799C44.9215 5.00799 44.6215 5.03199 44.3255 5.07999C44.0295 5.11999 43.7735 5.17999 43.5575 5.25999L43.3295 3.81999C43.4335 3.78799 43.5615 3.75599 43.7135 3.72399C43.8735 3.68399 44.0455 3.65199 44.2295 3.62799C44.4135 3.59599 44.6055 3.57199 44.8055 3.55599C45.0135 3.53199 45.2215 3.51999 45.4295 3.51999Z" fill="white"/>
<path d="M51.7263 8.71599C52.0543 8.71599 52.2863 8.68399 52.4223 8.61999C52.5583 8.55599 52.6263 8.43199 52.6263 8.24799C52.6263 8.10399 52.5383 7.97999 52.3623 7.87599C52.1863 7.76399 51.9183 7.63999 51.5583 7.50399C51.2783 7.39999 51.0223 7.29199 50.7903 7.17999C50.5663 7.06799 50.3743 6.93599 50.2143 6.78399C50.0543 6.62399 49.9303 6.43599 49.8423 6.21999C49.7543 6.00399 49.7103 5.74399 49.7103 5.43999C49.7103 4.84799 49.9303 4.37999 50.3703 4.03599C50.8103 3.69199 51.4143 3.51999 52.1823 3.51999C52.5663 3.51999 52.9343 3.55599 53.2863 3.62799C53.6383 3.69199 53.9183 3.76399 54.1263 3.84399L53.8143 5.23599C53.6063 5.16399 53.3783 5.09999 53.1303 5.04399C52.8903 4.98799 52.6183 4.95999 52.3143 4.95999C51.7543 4.95999 51.4743 5.11599 51.4743 5.42799C51.4743 5.49999 51.4863 5.56399 51.5103 5.61999C51.5343 5.67599 51.5823 5.73199 51.6543 5.78799C51.7263 5.83599 51.8223 5.89199 51.9423 5.95599C52.0703 6.01199 52.2303 6.07599 52.4223 6.14799C52.8143 6.29199 53.1383 6.43599 53.3943 6.57999C53.6503 6.71599 53.8503 6.86799 53.9943 7.03599C54.1463 7.19599 54.2503 7.37599 54.3063 7.57599C54.3703 7.77599 54.4023 8.00799 54.4023 8.27199C54.4023 8.89599 54.1663 9.36799 53.6943 9.68799C53.2303 10.008 52.5703 10.168 51.7143 10.168C51.1543 10.168 50.6863 10.12 50.3103 10.024C49.9423 9.92799 49.6863 9.84799 49.5423 9.78399L49.8423 8.33199C50.1463 8.45199 50.4583 8.54799 50.7783 8.61999C51.0983 8.68399 51.4143 8.71599 51.7263 8.71599Z" fill="white"/>
</svg>
